<svg xmlns="http://www.w3.org/2000/svg" xmlns:xlink="http://www.w3.org/1999/xlink" width="500" zoomAndPan="magnify" viewBox="0 0 375 374.999991" height="500" preserveAspectRatio="xMidYMid meet" version="1.2"><defs><clipPath id="7290c828c0"><path d="M 88 121.289062 L 287 121.289062 L 287 199.289062 L 88 199.289062 Z M 88 121.289062 "/></clipPath></defs><g id="eb0ace6a5f"><g clip-rule="nonzero" clip-path="url(#7290c828c0)"><path style=" stroke:none;fill-rule:nonzero;fill:#ff3131;fill-opacity:1;" d="M 285.46875 145.457031 L 192.207031 122.109375 C 189.078125 121.324219 185.816406 121.324219 182.753906 122.109375 L 89.425781 145.457031 C 87.796875 145.847656 87.796875 148.195312 89.425781 148.585938 L 135.273438 160.066406 C 161.230469 152.371094 189.144531 151.976562 215.6875 156.675781 C 188.816406 153.675781 160.511719 156.023438 135.273438 165.738281 L 135.273438 178.847656 C 135.273438 179.957031 136.316406 180.675781 137.359375 180.347656 C 152.230469 175.78125 169.316406 173.109375 187.449219 173.109375 C 205.578125 173.109375 222.664062 175.78125 237.601562 180.347656 C 238.644531 180.675781 239.621094 179.957031 239.621094 178.847656 L 239.621094 160.066406 L 259.644531 155.042969 L 259.644531 190.128906 L 259.316406 190.128906 C 258.601562 190.128906 258.011719 190.71875 258.011719 191.433594 L 258.011719 197.890625 C 258.011719 198.609375 258.601562 199.195312 259.316406 199.195312 L 263.230469 199.195312 C 263.949219 199.195312 264.535156 198.609375 264.535156 197.890625 L 264.535156 191.433594 C 264.535156 190.71875 263.949219 190.128906 263.230469 190.128906 L 262.902344 190.128906 L 262.902344 154.261719 L 285.46875 148.585938 C 287.164062 148.195312 287.164062 145.847656 285.46875 145.457031 Z M 285.46875 145.457031 "/></g><g style="fill:#000000;fill-opacity:1;"><g transform="translate(93.069785, 241.447527)"><path style="stroke:none" d="M 35.65625 -36.140625 L 41.921875 -36.140625 L 41.921875 0 L 36.078125 0 L 36.078125 -24.9375 L 24.875 0 L 20.96875 0 L 9.875 -24.875 L 9.875 0 L 3.96875 0 L 3.96875 -36.140625 L 10.296875 -36.140625 L 22.953125 -7.828125 Z M 35.65625 -36.140625 "/></g></g><g style="fill:#000000;fill-opacity:1;"><g transform="translate(138.968372, 241.447527)"><path style="stroke:none" d="M 4.28125 0 L 4.28125 -36.140625 L 10.171875 -36.140625 L 10.171875 0 Z M 4.28125 0 "/></g></g><g style="fill:#000000;fill-opacity:1;"><g transform="translate(153.364387, 241.447527)"><path style="stroke:none" d="M 29.9375 -36.140625 L 35.78125 -36.140625 L 35.78125 0 L 29.875 0 L 9.875 -26.859375 L 9.875 0 L 3.96875 0 L 3.96875 -36.140625 L 9.875 -36.140625 L 29.9375 -9.34375 Z M 29.9375 -36.140625 "/></g></g><g style="fill:#ff3131;fill-opacity:1;"><g transform="translate(193.12447, 241.447527)"><path style="stroke:none" d="M 3.96875 0 L 3.96875 -36.140625 L 14.8125 -36.140625 C 17.300781 -36.140625 19.640625 -35.664062 21.828125 -34.71875 C 24.023438 -33.78125 25.945312 -32.488281 27.59375 -30.84375 C 29.238281 -29.195312 30.53125 -27.28125 31.46875 -25.09375 C 32.414062 -22.90625 32.890625 -20.5625 32.890625 -18.0625 C 32.890625 -15.570312 32.414062 -13.234375 31.46875 -11.046875 C 30.53125 -8.859375 29.238281 -6.941406 27.59375 -5.296875 C 25.945312 -3.648438 24.023438 -2.351562 21.828125 -1.40625 C 19.640625 -0.46875 17.300781 0 14.8125 0 Z M 9.8125 -5.484375 L 14.8125 -5.484375 C 17.101562 -5.484375 19.171875 -6.023438 21.015625 -7.109375 C 22.867188 -8.191406 24.335938 -9.6875 25.421875 -11.59375 C 26.503906 -13.5 27.046875 -15.65625 27.046875 -18.0625 C 27.046875 -20.476562 26.503906 -22.640625 25.421875 -24.546875 C 24.335938 -26.453125 22.867188 -27.945312 21.015625 -29.03125 C 19.171875 -30.113281 17.101562 -30.65625 14.8125 -30.65625 L 9.8125 -30.65625 Z M 9.8125 -5.484375 "/></g></g><g style="fill:#ff3131;fill-opacity:1;"><g transform="translate(228.602514, 241.447527)"><path style="stroke:none" d="M 9.875 -5.484375 L 22.59375 -5.484375 L 22.59375 0 L 3.96875 0 L 3.96875 -36.140625 L 9.875 -36.140625 Z M 9.875 -5.484375 "/></g></g><g style="fill:#ff3131;fill-opacity:1;"><g transform="translate(251.491578, 241.447527)"><path style="stroke:none" d="M 30.78125 -36.140625 L 18.1875 -17.109375 L 18.1875 0 L 12.28125 0 L 12.28125 -16.984375 L -0.359375 -36.140625 L 6.5625 -36.140625 L 15.234375 -22.53125 L 23.96875 -36.140625 Z M 30.78125 -36.140625 "/></g></g><g style="fill:#000000;fill-opacity:1;"><g transform="translate(121.159194, 257.475276)"><path style="stroke:none" d="M 1.125 0 L 1.125 -8.15625 L 5.71875 -8.15625 C 5.75 -8.007812 5.773438 -7.863281 5.796875 -7.71875 C 5.816406 -7.570312 5.84375 -7.421875 5.875 -7.265625 L 2.28125 -7.265625 L 2.28125 -4.59375 L 4.578125 -4.59375 C 4.597656 -4.445312 4.617188 -4.296875 4.640625 -4.140625 C 4.671875 -3.992188 4.703125 -3.847656 4.734375 -3.703125 L 2.28125 -3.703125 L 2.28125 -0.90625 L 6.15625 -0.90625 L 6.3125 0 Z M 1.125 0 "/></g></g><g style="fill:#000000;fill-opacity:1;"><g transform="translate(136.183203, 257.475276)"><path style="stroke:none" d="M 1.125 0 L 1.125 -8.15625 L 3.953125 -8.15625 C 5.210938 -8.15625 6.128906 -7.769531 6.703125 -7 C 7.285156 -6.226562 7.578125 -5.269531 7.578125 -4.125 C 7.578125 -2.9375 7.257812 -1.953125 6.625 -1.171875 C 6 -0.390625 5.09375 0 3.90625 0 Z M 4 -7.171875 L 2.28125 -7.171875 L 2.28125 -0.953125 L 3.90625 -0.953125 C 4.65625 -0.953125 5.257812 -1.21875 5.71875 -1.75 C 6.1875 -2.289062 6.421875 -3.078125 6.421875 -4.109375 C 6.421875 -5.015625 6.222656 -5.75 5.828125 -6.3125 C 5.441406 -6.882812 4.832031 -7.171875 4 -7.171875 Z M 4 -7.171875 "/></g></g><g style="fill:#000000;fill-opacity:1;"><g transform="translate(152.959222, 257.475276)"><path style="stroke:none" d="M 2.1875 -3.03125 C 2.1875 -2.332031 2.367188 -1.785156 2.734375 -1.390625 C 3.097656 -1.003906 3.582031 -0.8125 4.1875 -0.8125 C 4.8125 -0.8125 5.300781 -1.007812 5.65625 -1.40625 C 6.007812 -1.8125 6.1875 -2.351562 6.1875 -3.03125 L 6.1875 -8.15625 L 7.34375 -8.15625 L 7.34375 -2.921875 C 7.34375 -2.046875 7.0625 -1.316406 6.5 -0.734375 C 5.9375 -0.160156 5.164062 0.125 4.1875 0.125 C 3.207031 0.125 2.4375 -0.160156 1.875 -0.734375 C 1.3125 -1.304688 1.03125 -2.035156 1.03125 -2.921875 L 1.03125 -8.15625 L 2.1875 -8.15625 Z M 2.1875 -3.03125 "/></g></g><g style="fill:#000000;fill-opacity:1;"><g transform="translate(169.747234, 257.475276)"><path style="stroke:none" d="M 6.125 -7.015625 C 5.832031 -7.109375 5.566406 -7.1875 5.328125 -7.25 C 5.097656 -7.3125 4.785156 -7.34375 4.390625 -7.34375 C 3.648438 -7.34375 3.0625 -7.035156 2.625 -6.421875 C 2.195312 -5.816406 1.984375 -5.023438 1.984375 -4.046875 C 1.984375 -3.160156 2.164062 -2.398438 2.53125 -1.765625 C 2.894531 -1.128906 3.484375 -0.8125 4.296875 -0.8125 C 4.691406 -0.8125 5.03125 -0.84375 5.3125 -0.90625 C 5.601562 -0.976562 5.859375 -1.066406 6.078125 -1.171875 L 6.53125 -0.3125 C 6.257812 -0.175781 5.910156 -0.0625 5.484375 0.03125 C 5.066406 0.125 4.6875 0.171875 4.34375 0.171875 C 3.082031 0.171875 2.171875 -0.238281 1.609375 -1.0625 C 1.054688 -1.894531 0.78125 -2.882812 0.78125 -4.03125 C 0.78125 -5.257812 1.085938 -6.28125 1.703125 -7.09375 C 2.316406 -7.914062 3.222656 -8.328125 4.421875 -8.328125 C 4.660156 -8.328125 4.988281 -8.285156 5.40625 -8.203125 C 5.832031 -8.128906 6.191406 -8.007812 6.484375 -7.84375 Z M 6.125 -7.015625 "/></g></g><g style="fill:#000000;fill-opacity:1;"><g transform="translate(185.299251, 257.475276)"><path style="stroke:none" d="M 3.640625 -6.609375 L 2.34375 -3.109375 L 4.984375 -3.109375 Z M 4.1875 -8.15625 L 7.328125 -0.171875 L 6.1875 0 L 5.34375 -2.1875 L 2.015625 -2.1875 L 1.203125 0 L 0.078125 0 L 3.140625 -8.15625 Z M 4.1875 -8.15625 "/></g></g><g style="fill:#000000;fill-opacity:1;"><g transform="translate(201.103265, 257.475276)"><path style="stroke:none" d="M 6.484375 -7.25 L 3.796875 -7.25 L 3.796875 0 L 2.625 0 L 2.625 -7.25 L 0.09375 -7.25 L 0.09375 -8.15625 L 6.328125 -8.15625 C 6.347656 -8.007812 6.367188 -7.859375 6.390625 -7.703125 C 6.421875 -7.546875 6.453125 -7.394531 6.484375 -7.25 Z M 6.484375 -7.25 "/></g></g><g style="fill:#000000;fill-opacity:1;"><g transform="translate(216.079278, 257.475276)"><path style="stroke:none" d="M 1.125 0 L 1.125 -8.15625 L 2.28125 -8.15625 L 2.28125 0 Z M 1.125 0 "/></g></g><g style="fill:#000000;fill-opacity:1;"><g transform="translate(227.88728, 257.475276)"><path style="stroke:none" d="M 0.78125 -4.046875 C 0.78125 -5.265625 1.09375 -6.28125 1.71875 -7.09375 C 2.34375 -7.90625 3.25 -8.328125 4.4375 -8.359375 C 5.707031 -8.359375 6.632812 -7.9375 7.21875 -7.09375 C 7.800781 -6.257812 8.09375 -5.269531 8.09375 -4.125 C 8.09375 -2.9375 7.773438 -1.925781 7.140625 -1.09375 C 6.503906 -0.269531 5.59375 0.148438 4.40625 0.171875 C 3.144531 0.171875 2.222656 -0.242188 1.640625 -1.078125 C 1.066406 -1.910156 0.78125 -2.898438 0.78125 -4.046875 Z M 1.984375 -4.0625 C 1.984375 -3.144531 2.175781 -2.375 2.5625 -1.75 C 2.945312 -1.125 3.554688 -0.8125 4.390625 -0.8125 C 5.148438 -0.8125 5.75 -1.101562 6.1875 -1.6875 C 6.632812 -2.269531 6.859375 -3.082031 6.859375 -4.125 C 6.859375 -5.03125 6.664062 -5.796875 6.28125 -6.421875 C 5.90625 -7.046875 5.300781 -7.359375 4.46875 -7.359375 C 3.71875 -7.359375 3.113281 -7.050781 2.65625 -6.4375 C 2.207031 -5.820312 1.984375 -5.03125 1.984375 -4.0625 Z M 1.984375 -4.0625 "/></g></g><g style="fill:#000000;fill-opacity:1;"><g transform="translate(245.143298, 257.475276)"><path style="stroke:none" d="M 1.125 0 L 1.125 -8.15625 L 2.140625 -8.15625 L 5.8125 -3.03125 L 6.390625 -2.125 L 6.390625 -8.15625 L 7.546875 -8.15625 L 7.546875 0 L 6.515625 0 L 2.734375 -5.359375 L 2.28125 -6.078125 L 2.28125 0 Z M 1.125 0 "/></g></g></g></svg>