<?xml version="1.0" encoding="UTF-8"?>
<svg version="1.1" xmlns="http://www.w3.org/2000/svg" width="500" height="500">
<path d="M0 0 C1.14394226 0.21685959 2.28788452 0.43371918 3.4664917 0.65715027 C5.93573197 1.12595547 8.40429059 1.59836247 10.8722229 2.07400513 C16.84612465 3.22488679 22.82419216 4.35359106 28.80219078 5.48296547 C30.8666046 5.87319874 32.93084099 6.26436125 34.99507141 6.65556335 C48.47754749 9.2069879 61.98410689 11.61800408 75.49609375 14.0078125 C95.31767432 17.51912986 115.11822627 21.13138982 134.90515137 24.83306885 C145.97959212 26.90442104 157.05285247 28.9581084 168.16796875 30.80078125 C169.00148361 30.9395871 169.83499847 31.07839294 170.69377136 31.22140503 C174.47689063 31.84923731 178.26131548 32.46461046 182.05004883 33.05761719 C183.33290771 33.26676758 184.6157666 33.47591797 185.9375 33.69140625 C187.03392822 33.86341553 188.13035645 34.0354248 189.26000977 34.21264648 C196.31967871 35.98183784 198.9282258 40.01623415 202.54296875 45.96484375 C204.85015619 50.15623427 206.6780358 54.40723262 208.18359375 58.9453125 C208.539375 59.93917969 208.89515625 60.93304688 209.26171875 61.95703125 C212.79096665 74.63776052 211.65198929 91.19351277 206.765625 103.30859375 C203.15479714 109.32664018 198.81747934 111.9218918 192.4765625 114.27734375 C191.75116776 114.5588176 191.02577301 114.84029144 190.27839661 115.1302948 C187.98055159 116.018664 185.67618244 116.88843586 183.37109375 117.7578125 C181.80356757 118.36010921 180.2365046 118.96361297 178.66992188 119.56835938 C174.84636193 121.04135853 171.01684503 122.49773114 167.18359375 123.9453125 C178.7102089 127.86324324 190.24365688 131.67382858 201.95996094 134.99072266 C202.74918945 135.21937012 203.53841797 135.44801758 204.3515625 135.68359375 C205.04531982 135.87993408 205.73907715 136.07627441 206.45385742 136.27856445 C208.18359375 136.9453125 208.18359375 136.9453125 210.18359375 138.9453125 C210.05859375 140.8828125 210.05859375 140.8828125 209.18359375 142.9453125 C208.51680603 143.36222855 207.85001831 143.77914459 207.1630249 144.20869446 C204.9313836 145.81026961 204.9313836 145.81026961 204.66461182 148.58390808 C204.65572937 149.6431398 204.64684692 150.70237152 204.63769531 151.79370117 C204.61797668 152.9947197 204.59825806 154.19573822 204.57794189 155.43315125 C204.57671326 156.73009415 204.57548462 158.02703705 204.57421875 159.36328125 C204.55923837 160.70422873 204.54251151 162.04515774 204.52410889 163.38606262 C204.48040581 166.9123926 204.46043021 170.43847371 204.44537354 173.96502686 C204.42581271 177.56472509 204.38384173 181.16415412 204.34375 184.76367188 C204.26841654 191.82411627 204.21814432 198.88454127 204.18359375 205.9453125 C204.98796875 206.2546875 205.79234375 206.5640625 206.62109375 206.8828125 C209.18359375 207.9453125 209.18359375 207.9453125 210.18359375 208.9453125 C210.22423207 210.61148365 210.22631475 212.27919345 210.18359375 213.9453125 C204.55859375 215.9453125 204.55859375 215.9453125 201.18359375 215.9453125 C201.38855469 216.6465625 201.59351563 217.3478125 201.8046875 218.0703125 C206.49020531 234.57050918 206.9151742 250.83808277 199.5 266.66796875 C197.12541311 270.7759336 194.77156141 272.33025795 190.3203125 273.8984375 C189.30888184 274.26211426 188.29745117 274.62579102 187.25537109 275.00048828 C186.13855957 275.39478027 185.02174805 275.78907227 183.87109375 276.1953125 C181.39703146 277.0901146 178.92418235 277.98761605 176.453125 278.890625 C175.7933667 279.13138763 175.1336084 279.37215027 174.45385742 279.62020874 C166.26526641 282.6248304 158.16431295 285.8503307 150.05859375 289.0703125 C146.80483409 290.36104681 143.55085602 291.65123012 140.296875 292.94140625 C139.47320435 293.2681282 138.64953369 293.59485016 137.80090332 293.93147278 C128.29579557 297.69893362 118.77194997 301.41819102 109.24609375 305.1328125 C108.38994476 305.46683075 107.53379578 305.800849 106.65170288 306.14498901 C97.81589562 309.59172299 88.97671553 313.02949646 80.12890625 316.4453125 C79.41961472 316.71926346 78.71032318 316.99321442 77.97953796 317.27546692 C74.7119722 318.53722707 71.44369778 319.79704793 68.17407227 321.0534668 C59.0259846 324.58006133 49.96782203 328.28250114 40.98828125 332.21875 C39.34532734 332.91991616 37.70210152 333.62044555 36.05859375 334.3203125 C35.24261719 334.68769531 34.42664063 335.05507813 33.5859375 335.43359375 C27.32685401 338.05390516 22.80052532 338.18598717 16.18359375 336.9453125 C15.10851562 336.75437012 14.0334375 336.56342773 12.92578125 336.36669922 C9.19180034 335.67710401 5.46924338 334.94110518 1.74609375 334.1953125 C-1.02560721 333.64752603 -3.79796528 333.10309874 -6.5703125 332.55859375 C-7.26564087 332.42159561 -7.96096924 332.28459747 -8.67736816 332.14344788 C-15.33856273 330.83420645 -22.01339905 329.60317637 -28.69140625 328.3828125 C-37.97471858 326.67812603 -47.23579227 324.88567309 -56.48754883 323.01782227 C-66.966769 320.90506983 -77.45897966 318.86111222 -87.95227051 316.81967163 C-99.10395964 314.64987481 -110.25300175 312.46733821 -121.3984375 310.265625 C-124.96362808 309.56192242 -128.52885621 308.85841063 -132.09411621 308.15505981 C-134.48731397 307.68288057 -136.88046199 307.21044917 -139.27355957 306.73776245 C-151.78469885 304.26857119 -164.2996732 301.83188214 -176.84375 299.53515625 C-177.85596619 299.34946075 -178.86818237 299.16376526 -179.91107178 298.97244263 C-184.64245712 298.10621641 -189.37525618 297.24921887 -194.11083984 296.40625 C-195.76923316 296.10562005 -197.4276007 295.8048478 -199.0859375 295.50390625 C-199.83310532 295.3741893 -200.58027313 295.24447235 -201.3500824 295.11082458 C-204.7681602 294.48472492 -206.87941796 293.90330469 -209.81640625 291.9453125 C-209.56640625 289.6328125 -209.56640625 289.6328125 -208.81640625 286.9453125 C-208.15219666 286.52118576 -207.48798706 286.09705902 -206.8036499 285.66007996 C-204.54402289 284.07022554 -204.54402289 284.07022554 -204.29742432 281.19282532 C-204.28854187 280.08029892 -204.27965942 278.96777252 -204.27050781 277.8215332 C-204.25078918 276.56045242 -204.23107056 275.29937164 -204.21075439 274.00007629 C-204.20909124 272.62374922 -204.20786037 271.24742157 -204.20703125 269.87109375 C-204.19205159 268.46288649 -204.17532488 267.05469682 -204.15692139 265.64653015 C-204.1132105 261.94264933 -204.09324089 258.23900549 -204.07818604 254.53491211 C-204.0586281 250.75425176 -204.01665677 246.97384785 -203.9765625 243.19335938 C-203.90122018 235.77741263 -203.85095353 228.36157337 -203.81640625 220.9453125 C-204.4609375 220.66945313 -205.10546875 220.39359375 -205.76953125 220.109375 C-207.81640625 218.9453125 -207.81640625 218.9453125 -208.56640625 216.3203125 C-208.64890625 215.5365625 -208.73140625 214.7528125 -208.81640625 213.9453125 C-200.94544453 210.56782214 -192.9126911 208.07191519 -184.69140625 205.6953125 C-183.44875 205.33179688 -182.20609375 204.96828125 -180.92578125 204.59375 C-177.89057573 203.70653608 -174.85413761 202.82383131 -171.81640625 201.9453125 C-172.86699219 201.55859375 -173.91757813 201.171875 -175 200.7734375 C-178.62161378 199.4353901 -182.2306867 198.06610369 -185.83740234 196.68847656 C-187.46257667 196.07818411 -189.10084673 195.50287506 -190.7421875 194.9375 C-194.69302649 193.46340545 -197.1075152 192.19631638 -199.19140625 188.4453125 C-199.7790514 186.96272154 -200.3181284 185.46027849 -200.81640625 183.9453125 C-201.11289063 183.14867187 -201.409375 182.35203125 -201.71484375 181.53125 C-206.16857733 167.35285044 -205.44707358 150.62625118 -199.81640625 136.9453125 C-199.48640625 135.9553125 -199.15640625 134.9653125 -198.81640625 133.9453125 C-200.05390625 133.3575 -200.05390625 133.3575 -201.31640625 132.7578125 C-203.81640625 130.9453125 -203.81640625 130.9453125 -204.37890625 128.4453125 C-203.81640625 125.9453125 -203.81640625 125.9453125 -201.81536865 124.67179871 C-199.5446738 123.07276982 -199.5446738 123.07276982 -199.29742432 120.19282532 C-199.28854187 119.08029892 -199.27965942 117.96777252 -199.27050781 116.8215332 C-199.25078918 115.56045242 -199.23107056 114.29937164 -199.21075439 113.00007629 C-199.20909124 111.62374922 -199.20786037 110.24742157 -199.20703125 108.87109375 C-199.19205159 107.46288649 -199.17532488 106.05469682 -199.15692139 104.64653015 C-199.1132105 100.94264933 -199.09324089 97.23900549 -199.07818604 93.53491211 C-199.0586281 89.75425176 -199.01665677 85.97384785 -198.9765625 82.19335938 C-198.90122018 74.77741263 -198.85095353 67.36157337 -198.81640625 59.9453125 C-199.4609375 59.66945312 -200.10546875 59.39359375 -200.76953125 59.109375 C-202.81640625 57.9453125 -202.81640625 57.9453125 -203.56640625 55.3203125 C-203.64890625 54.5365625 -203.73140625 53.7528125 -203.81640625 52.9453125 C-197.60015145 50.06331134 -191.20067586 48.16637042 -184.62890625 46.2578125 C-183.44562744 45.91041016 -182.26234863 45.56300781 -181.04321289 45.20507812 C-171.45464657 42.39848346 -161.84351884 39.67211676 -152.23168945 36.9465332 C-143.32509419 34.40806999 -134.47579565 31.70790232 -125.63378906 28.95410156 C-116.32696121 26.06929695 -106.97039765 23.37562948 -97.59179688 20.734375 C-90.93246343 18.85539295 -84.30818671 16.88838748 -77.69946289 14.83837891 C-74.28812735 13.78167085 -70.86834006 12.76278972 -67.44140625 11.7578125 C-66.77713623 11.56276123 -66.11286621 11.36770996 -65.4284668 11.16674805 C-60.30444439 9.66531102 -55.17582585 8.17980772 -50.046875 6.6953125 C-48.64957522 6.29061425 -47.25227706 5.88591042 -45.85498047 5.48120117 C-43.07188425 4.67517113 -40.28828542 3.87090751 -37.50439453 3.06762695 C-36.19822741 2.68966695 -34.89207448 2.31165791 -33.5859375 1.93359375 C-32.42682861 1.59884033 -31.26771973 1.26408691 -30.07348633 0.91918945 C-26.8529387 0.00581293 -26.8529387 0.00581293 -23.95581055 -1.17895508 C-15.93903175 -3.41522427 -8.00000513 -1.56701716 0 0 Z " fill="#48AD96" transform="translate(249.81640625,82.0546875)"/>
<path d="M0 0 C7.8174338 0.50947686 15.35334928 1.47638402 23.01953125 3.07421875 C24.02791046 3.27844955 25.03628967 3.48268036 26.07522583 3.69309998 C28.2169274 4.12763635 30.35801231 4.56522188 32.49850464 5.00567627 C35.87022785 5.69937697 39.24354364 6.38478166 42.61743164 7.06787109 C47.08099706 7.9716928 51.5440933 8.87776949 56.00683594 9.78564453 C63.31013713 11.26857808 70.62033383 12.7120404 77.9375 14.125 C79.11683105 14.35292236 80.29616211 14.58084473 81.51123047 14.81567383 C88.67937981 16.19216975 95.85369981 17.53293381 103.03125 18.859375 C103.9136586 19.02247162 104.7960672 19.18556824 105.70521545 19.35360718 C106.60050461 19.51906036 107.49579376 19.68451355 108.41821289 19.85498047 C109.32572296 20.02269958 110.23323303 20.1904187 111.16824341 20.36322021 C113.01414931 20.70435773 114.86007623 21.04538153 116.70602417 21.3862915 C130.63960653 23.96284082 144.54170729 26.67100377 158.42749023 29.4934082 C168.2777726 31.49478891 178.13760969 33.41355578 188.02734375 35.2109375 C189.52474594 35.48408783 189.52474594 35.48408783 191.05239868 35.76275635 C195.91897829 36.64926518 200.78706845 37.52559357 205.65820312 38.38671875 C207.40630525 38.70281959 209.15435502 39.0192102 210.90234375 39.3359375 C211.71066147 39.47518646 212.51897919 39.61443542 213.35179138 39.75790405 C215.24787915 40.10571045 217.12703357 40.54380394 219 41 C219.33 41.66 219.66 42.32 220 43 C214.21644524 44.00008647 208.4323426 44.99691816 202.64770508 45.99072266 C200.67945151 46.32934343 198.71135132 46.66885697 196.7434082 47.00927734 C193.91657614 47.49811193 191.0892101 47.98374529 188.26171875 48.46875 C187.38037766 48.62186646 186.49903656 48.77498291 185.59098816 48.93273926 C184.77036392 49.07288452 183.94973969 49.21302979 183.10424805 49.35742188 C182.38254929 49.48177612 181.66085052 49.60613037 180.9172821 49.73425293 C179 50 179 50 176 50 C176.02320313 51.22203125 176.04640625 52.4440625 176.0703125 53.703125 C176.32827091 75.16203994 175.07522907 96.57548878 174 118 C186.15593563 115.58649623 198.30579781 113.14717155 210.4453125 110.65234375 C229.9900563 106.63839209 249.52856306 102.647166 269.15380859 99.04492188 C277.36589385 97.52659473 285.52995892 95.8497346 293.6875 94.0625 C305.13394698 91.55469944 316.61847128 89.33634225 328.13702393 87.19232178 C342.44805829 84.5253045 356.70902378 81.64340948 370.95825195 78.66455078 C398.31910156 72.95955957 398.31910156 72.95955957 406 74 C408 76 408 76 408.125 78.625 C408.08375 79.40875 408.0425 80.1925 408 81 C402.375 83 402.375 83 399 83 C399.20496094 83.70125 399.40992188 84.4025 399.62109375 85.125 C404.30661156 101.62519668 404.73158045 117.89277027 397.31640625 133.72265625 C394.94181936 137.8306211 392.58796766 139.38494545 388.13671875 140.953125 C387.12528809 141.31680176 386.11385742 141.68047852 385.07177734 142.05517578 C383.95496582 142.44946777 382.8381543 142.84375977 381.6875 143.25 C379.21343771 144.1448021 376.7405886 145.04230355 374.26953125 145.9453125 C373.60977295 146.18607513 372.95001465 146.42683777 372.27026367 146.67489624 C364.08167266 149.6795179 355.9807192 152.9050182 347.875 156.125 C344.62124034 157.41573431 341.36726227 158.70591762 338.11328125 159.99609375 C337.2896106 160.3228157 336.46593994 160.64953766 335.61730957 160.98616028 C326.11220182 164.75362112 316.58835622 168.47287852 307.0625 172.1875 C306.20635101 172.52151825 305.35020203 172.8555365 304.46810913 173.19967651 C295.63230187 176.64641049 286.79312178 180.08418396 277.9453125 183.5 C277.23602097 183.77395096 276.52672943 184.04790192 275.79594421 184.33015442 C272.52837845 185.59191457 269.26010403 186.85173543 265.99047852 188.1081543 C256.84239085 191.63474883 247.78422828 195.33718864 238.8046875 199.2734375 C237.16173359 199.97460366 235.51850777 200.67513305 233.875 201.375 C233.05902344 201.74238281 232.24304688 202.10976563 231.40234375 202.48828125 C225.14326026 205.10859266 220.61693157 205.24067467 214 204 C212.92492187 203.80905762 211.84984375 203.61811523 210.7421875 203.42138672 C207.00820659 202.73179151 203.28564963 201.99579268 199.5625 201.25 C196.79079904 200.70221353 194.01844097 200.15778624 191.24609375 199.61328125 C190.55076538 199.47628311 189.85543701 199.33928497 189.13903809 199.19813538 C182.47784352 197.88889395 175.8030072 196.65786387 169.125 195.4375 C159.84168767 193.73281353 150.58061398 191.94036059 141.32885742 190.07250977 C130.84963725 187.95975733 120.35742659 185.91579972 109.86413574 183.87435913 C98.71244661 181.70456231 87.5634045 179.52202571 76.41796875 177.3203125 C72.85277817 176.61660992 69.28755004 175.91309813 65.72229004 175.20974731 C63.32909228 174.73756807 60.93594426 174.26513667 58.54284668 173.79244995 C46.0317074 171.32325869 33.51673305 168.88656964 20.97265625 166.58984375 C19.45433197 166.31130051 19.45433197 166.31130051 17.90533447 166.02713013 C13.17394913 165.16090391 8.44115007 164.30390637 3.70556641 163.4609375 C2.04717309 163.16030755 0.38880555 162.8595353 -1.26953125 162.55859375 C-2.01669907 162.4288768 -2.76386688 162.29915985 -3.53367615 162.16551208 C-6.95175395 161.53941242 -9.06301171 160.95799219 -12 159 C-11.75 156.6875 -11.75 156.6875 -11 154 C-10.33579041 153.57587326 -9.67158081 153.15174652 -8.98724365 152.71476746 C-6.72761664 151.12491304 -6.72761664 151.12491304 -6.48101807 148.24751282 C-6.4676944 146.57872322 -6.4676944 146.57872322 -6.45410156 144.8762207 C-6.42452362 142.98459953 -6.42452362 142.98459953 -6.39434814 141.05476379 C-6.39268499 139.67843672 -6.39145412 138.30210907 -6.390625 136.92578125 C-6.37564534 135.51757399 -6.35891863 134.10938432 -6.34051514 132.70121765 C-6.29680425 128.99733683 -6.27683464 125.29369299 -6.26177979 121.58959961 C-6.24222185 117.80893926 -6.20025052 114.02853535 -6.16015625 110.24804688 C-6.08481393 102.83210013 -6.03454728 95.41626087 -6 88 C-6.64453125 87.72414063 -7.2890625 87.44828125 -7.953125 87.1640625 C-10 86 -10 86 -10.75 83.375 C-10.8325 82.59125 -10.915 81.8075 -11 81 C-3.12903828 77.62250964 4.90371515 75.12660269 13.125 72.75 C14.36765625 72.38648438 15.6103125 72.02296875 16.890625 71.6484375 C19.92583052 70.76122358 22.96226864 69.87851881 26 69 C24.94941406 68.61328125 23.89882812 68.2265625 22.81640625 67.828125 C19.19479247 66.4900776 15.58571955 65.12079119 11.97900391 63.74316406 C10.35382958 63.13287161 8.71555952 62.55756256 7.07421875 61.9921875 C3.12337976 60.51809295 0.70889105 59.25100388 -1.375 55.5 C-1.96264515 54.01740904 -2.50172215 52.51496599 -3 51 C-3.44472656 49.80503906 -3.44472656 49.80503906 -3.8984375 48.5859375 C-8.86714028 32.76814058 -7.42702846 14.69471198 0 0 Z " fill="#DAD8D6" transform="translate(52,215)"/>
<path d="M0 0 C0.7361554 0.28677612 1.47231079 0.57355225 2.23077393 0.86901855 C4.65195318 1.81632423 7.06398231 2.78493369 9.4765625 3.75390625 C11.18875576 4.42852314 12.90149583 5.10175366 14.61474609 5.77368164 C19.17432276 7.56617615 23.72639853 9.37700564 28.27709961 11.19189453 C33.01148132 13.07680785 37.75201523 14.94611366 42.4921875 16.81640625 C47.9779725 18.98133495 53.46316353 21.14760711 58.94287109 23.32788086 C68.52382742 27.13710631 78.12641213 30.87948734 87.77090454 34.5252533 C93.65482907 36.75159619 99.50866045 39.04714372 105.3515625 41.37890625 C106.649729 41.89535706 106.649729 41.89535706 107.97412109 42.42224121 C111.94886058 44.00582856 115.88189375 45.64862658 119.78125 47.41015625 C127.54784963 50.88488698 133.57503335 53.50172409 142.1015625 51.31640625 C152.83750482 48.88109665 161.11549811 48.09450559 172.1015625 50.31640625 C172.97941406 50.36023438 173.85726562 50.4040625 174.76171875 50.44921875 C177.36966221 50.64949488 178.87300116 50.93331973 181.1015625 52.31640625 C183.9383841 56.32620577 185.57800049 60.68111274 187.1015625 65.31640625 C187.31184082 65.94450195 187.52211914 66.57259766 187.73876953 67.21972656 C193.22249137 84.26572177 192.71521151 100.36219495 184.6640625 116.56640625 C183.32431001 119.12453992 182.76514785 120.10115201 179.99267578 121.00048828 C176.2833364 121.40581552 173.01131513 120.74853104 169.40234375 119.98046875 C168.25486916 119.74924568 168.25486916 119.74924568 167.08421326 119.51335144 C165.41248335 119.17595745 163.7415762 118.83446725 162.07141113 118.4894104 C157.42061374 117.53031296 152.76286453 116.60611787 148.10546875 115.6796875 C147.12089691 115.48326157 146.13632507 115.28683563 145.12191772 115.0844574 C134.39066879 112.95520164 123.6234717 111.03947752 112.8515625 109.12890625 C92.3689084 105.48425654 71.91879882 101.67993289 51.4765625 97.81640625 C50.74043354 97.67730206 50.00430458 97.53819786 49.24586868 97.39487839 C42.66869718 96.15192233 36.09167363 94.90818494 29.5148468 93.66340637 C16.27568546 91.1579669 3.03296485 88.67165943 -10.2109375 86.19140625 C-12.11865459 85.83399639 -14.02636952 85.47657497 -15.93408203 85.11914062 C-19.21293662 84.50485644 -22.49182677 83.8907627 -25.77075195 83.27685547 C-32.81350055 81.95770235 -39.85593553 80.63687537 -46.8984375 79.31640625 C-46.5684375 58.19640625 -46.2384375 37.07640625 -45.8984375 15.31640625 C-47.2184375 14.65640625 -48.5384375 13.99640625 -49.8984375 13.31640625 C-50.6484375 10.69140625 -50.6484375 10.69140625 -50.8984375 8.31640625 C-43.66611226 5.2684763 -36.36242189 2.78203589 -28.8359375 0.56640625 C-27.29969727 0.09267578 -27.29969727 0.09267578 -25.73242188 -0.390625 C-24.72373047 -0.68839844 -23.71503906 -0.98617188 -22.67578125 -1.29296875 C-21.78109131 -1.56077148 -20.88640137 -1.82857422 -19.96459961 -2.10449219 C-12.69257934 -3.47794804 -6.80109602 -2.78225726 0 0 Z " fill="#D9D8D6" transform="translate(91.8984375,287.68359375)"/>
<path d="M0 0 C1.08603516 0.34804687 2.17207031 0.69609375 3.29101562 1.0546875 C5.47824281 1.75563865 7.66333579 2.46328589 9.84619141 3.17773438 C14.41084768 4.64258681 19.00915004 5.98979432 23.61206055 7.32910156 C26.1875 8.25 26.1875 8.25 28.1875 10.25 C28.0625 12.1875 28.0625 12.1875 27.1875 14.25 C26.52071228 14.66691605 25.85392456 15.08383209 25.16693115 15.51338196 C22.93528985 17.11495711 22.93528985 17.11495711 22.66851807 19.88859558 C22.65963562 20.9478273 22.65075317 22.00705902 22.64160156 23.09838867 C22.62188293 24.2994072 22.60216431 25.50042572 22.58184814 26.73783875 C22.58061951 28.03478165 22.57939087 29.33172455 22.578125 30.66796875 C22.56314462 32.00891623 22.54641776 33.34984524 22.52801514 34.69075012 C22.48431206 38.2170801 22.46433646 41.74316121 22.44927979 45.26971436 C22.42971896 48.86941259 22.38774798 52.46884162 22.34765625 56.06835938 C22.27232279 63.12880377 22.22205057 70.18922877 22.1875 77.25 C22.8475 77.58 23.5075 77.91 24.1875 78.25 C23.62804687 78.33778717 23.06859375 78.42557434 22.4921875 78.51602173 C4.99190526 81.2880281 -12.3670224 84.67313057 -29.72674561 88.20123291 C-35.920936 89.45971955 -42.11642232 90.71177945 -48.3125 91.9609375 C-49.32784915 92.16590977 -49.32784915 92.16590977 -50.3637104 92.37502289 C-62.18121031 94.75780198 -74.02071053 97.01047912 -85.87731934 99.19003296 C-94.24289709 100.73503508 -102.5641058 102.43428029 -110.875 104.25 C-121.79571489 106.62911867 -132.7401898 108.82624437 -143.71899414 110.92089844 C-150.83010206 112.27962402 -157.9329858 113.66945359 -165.02734375 115.11328125 C-165.80271988 115.27058212 -166.57809601 115.427883 -167.37696838 115.58995056 C-171.93772641 116.51524856 -171.93772641 116.51524856 -176.49636841 117.45089722 C-186.23623957 119.46158952 -195.93466896 121.06794574 -205.8125 122.25 C-205.96484566 107.13815676 -205.49180996 92.09527024 -204.8125 77 C-204.71575074 74.77866301 -204.61939448 72.55730886 -204.5234375 70.3359375 C-204.2909696 64.97375295 -204.05372368 59.61179744 -203.8125 54.25 C-179.86120839 49.31581482 -179.86120839 49.31581482 -168.375 47.4375 C-167.65078857 47.3139917 -166.92657715 47.1904834 -166.18041992 47.06323242 C-162.41675131 46.47079908 -158.92131749 46.25518319 -155.11206055 46.41943359 C-149.74804734 46.43661087 -145.6644612 45.12593949 -140.765625 43.05859375 C-139.92915436 42.722229 -139.09268372 42.38586426 -138.23086548 42.03930664 C-135.50140415 40.93773961 -132.78232022 39.81263455 -130.0625 38.6875 C-128.13761915 37.90646411 -126.21198775 37.12727565 -124.28564453 36.34985352 C-120.35110786 34.7601721 -116.41994113 33.1625694 -112.49121094 31.55859375 C-105.01222157 28.51055757 -97.50078502 25.54631769 -89.98471069 22.59118652 C-87.68869683 21.68797082 -85.39365257 20.78233317 -83.09887695 19.87597656 C-69.04683834 14.32788584 -54.97299129 8.83572454 -40.89599609 3.35131836 C-40.05737534 3.02456116 -39.21875458 2.69780396 -38.35472107 2.36114502 C-36.78992713 1.75156266 -35.22504283 1.1422122 -33.66004944 0.53314209 C-32.96068771 0.26076721 -32.26132599 -0.01160767 -31.54077148 -0.29223633 C-30.89121994 -0.54379486 -30.2416684 -0.79535339 -29.57243347 -1.05453491 C-28.06577293 -1.64991526 -26.57448648 -2.28395155 -25.08691406 -2.92553711 C-16.704889 -5.96397621 -8.03929225 -2.66245498 0 0 Z " fill="#F1F1F1" transform="translate(431.8125,210.75)"/>
<path d="M0 0 C1.93525398 0.13672782 3.86483554 0.35406895 5.7890625 0.6015625 C7.02317871 0.75915039 8.25729492 0.91673828 9.52880859 1.07910156 C10.89428377 1.2604812 12.25967867 1.44246591 13.625 1.625 C14.67170868 1.76270813 14.67170868 1.76270813 15.73956299 1.90319824 C29.64929366 3.73655438 43.49455355 5.92437005 57.33398438 8.22558594 C65.71252649 9.61808496 74.09474105 10.98835873 82.47674561 12.35983276 C84.57741635 12.70357777 86.67804293 13.04759274 88.77862549 13.39187622 C103.13771772 15.74417125 117.50567631 18.02906758 131.8862915 20.24588013 C148.26894058 22.77229069 164.64596659 25.2995103 180.95458984 28.27392578 C184.01167077 28.82793254 187.07249315 29.35674626 190.13525391 29.87841797 C194.84450882 30.68163868 199.5471292 31.51741489 204.24743652 32.37136841 C206.10944428 32.70449267 207.97332622 33.02732162 209.83898926 33.33932495 C212.45205265 33.77857418 215.05551154 34.25581099 217.66015625 34.7421875 C218.44417313 34.86516708 219.22819 34.98814667 220.03596497 35.11485291 C225.28224195 36.15019108 225.28224195 36.15019108 227.36102295 38.61141968 C228.4465332 40.48144531 228.4465332 40.48144531 230 44 C230.39445313 44.84304687 230.78890625 45.68609375 231.1953125 46.5546875 C231.50210938 47.32039063 231.80890625 48.08609375 232.125 48.875 C232.59292969 50.01582031 232.59292969 50.01582031 233.0703125 51.1796875 C235.57854368 58.78869134 236.34023874 65.94319422 236.3125 73.9375 C236.32861328 74.86240234 236.34472656 75.78730469 236.36132812 76.74023438 C236.36721454 85.14014885 234.68695674 92.77449949 230.375 100.0625 C229.73691406 101.16271484 229.73691406 101.16271484 229.0859375 102.28515625 C228 104 228 104 227 105 C215.29700883 105.10511275 203.61069014 102.21091434 192.1875 100 C190.06231989 99.59437087 187.93699118 99.18951962 185.81152344 98.78540039 C181.40093446 97.94611574 176.99099929 97.10351554 172.58154297 96.25830078 C163.30588455 94.48225606 154.02419693 92.73846617 144.74172974 90.99841309 C142.73439924 90.62206293 140.72713685 90.24534937 138.71994019 89.86828613 C128.34986561 87.92022995 117.97790293 85.98501116 107.59375 84.11328125 C106.74433838 83.96016479 105.89492676 83.80704834 105.01977539 83.64929199 C101.57119266 83.02801239 98.12256736 82.40697034 94.67382812 81.78656006 C81.90268169 79.48480449 69.15103362 77.08733883 56.40625 74.64453125 C55.63909416 74.49753407 54.87193832 74.35053688 54.08153534 74.19908524 C46.34717836 72.71662394 38.61360726 71.23015683 30.88157654 69.7356081 C27.97905537 69.1749855 25.07616082 68.6163127 22.17320251 68.0579586 C20.81527519 67.79621837 19.45753213 67.53352006 18.09999084 67.26978493 C11.41415856 65.97095469 4.77434096 64.72506452 -2 64 C-1.89264919 55.80300281 -1.78004701 47.60610208 -1.66066074 39.40927219 C-1.60539706 35.60352595 -1.55197171 31.79777208 -1.50268555 27.99194336 C-1.45509259 24.32200665 -1.40275191 20.65216609 -1.34705925 16.98234367 C-1.32661263 15.57927773 -1.30790343 14.1761854 -1.29092598 12.7730732 C-1.26693313 10.81423074 -1.23629801 8.85547299 -1.20532227 6.89672852 C-1.18977798 5.77976089 -1.1742337 4.66279327 -1.15821838 3.51197815 C-1 1 -1 1 0 0 Z " fill="#F1F1F1" transform="translate(52,142)"/>
<path d="M0 0 C5.4538419 16.73883552 5.90073113 33.53166804 -1.68359375 49.72265625 C-4.05818064 53.8306211 -6.41203234 55.38494545 -10.86328125 56.953125 C-11.87471191 57.31680176 -12.88614258 57.68047852 -13.92822266 58.05517578 C-15.60343994 58.64661377 -15.60343994 58.64661377 -17.3125 59.25 C-19.78656229 60.1448021 -22.2594114 61.04230355 -24.73046875 61.9453125 C-25.39022705 62.18607513 -26.04998535 62.42683777 -26.72973633 62.67489624 C-34.91832734 65.6795179 -43.0192808 68.9050182 -51.125 72.125 C-54.37875966 73.41573431 -57.63273773 74.70591762 -60.88671875 75.99609375 C-61.7103894 76.3228157 -62.53406006 76.64953766 -63.38269043 76.98616028 C-72.88779818 80.75362112 -82.41164378 84.47287852 -91.9375 88.1875 C-92.79364899 88.52151825 -93.64979797 88.8555365 -94.53189087 89.19967651 C-103.36769813 92.64641049 -112.20687822 96.08418396 -121.0546875 99.5 C-121.76397903 99.77395096 -122.47327057 100.04790192 -123.20405579 100.33015442 C-126.47162155 101.59191457 -129.73989597 102.85173543 -133.00952148 104.1081543 C-142.15760915 107.63474883 -151.21577172 111.33718864 -160.1953125 115.2734375 C-161.83826641 115.97460366 -163.48149223 116.67513305 -165.125 117.375 C-166.34896484 117.92607422 -166.34896484 117.92607422 -167.59765625 118.48828125 C-173.85673974 121.10859266 -178.38306843 121.24067467 -185 120 C-186.07507813 119.80905762 -187.15015625 119.61811523 -188.2578125 119.42138672 C-191.99179341 118.73179151 -195.71435037 117.99579268 -199.4375 117.25 C-202.20920096 116.70221353 -204.98155903 116.15778624 -207.75390625 115.61328125 C-208.44923462 115.47628311 -209.14456299 115.33928497 -209.86096191 115.19813538 C-216.52215648 113.88889395 -223.1969928 112.65786387 -229.875 111.4375 C-239.15831233 109.73281353 -248.41938602 107.94036059 -257.67114258 106.07250977 C-268.15036275 103.95975733 -278.64257341 101.91579972 -289.13586426 99.87435913 C-300.28755339 97.70456231 -311.4365955 95.52202571 -322.58203125 93.3203125 C-326.14722183 92.61660992 -329.71244996 91.91309813 -333.27770996 91.20974731 C-335.67090772 90.73756807 -338.06405574 90.26513667 -340.45715332 89.79244995 C-352.9682926 87.32325869 -365.48326695 84.88656964 -378.02734375 82.58984375 C-379.54566803 82.31130051 -379.54566803 82.31130051 -381.09466553 82.02713013 C-385.82605087 81.16090391 -390.55884993 80.30390637 -395.29443359 79.4609375 C-396.95282691 79.16030755 -398.61119445 78.8595353 -400.26953125 78.55859375 C-401.01669907 78.4288768 -401.76386688 78.29915985 -402.53367615 78.16551208 C-405.95175395 77.53941242 -408.06301171 76.95799219 -411 75 C-410.25 70.25 -410.25 70.25 -408 68 C-402.90922732 67.66222737 -398.13773811 68.35643959 -393.16015625 69.328125 C-392.39062119 69.47288269 -391.62108612 69.61764038 -390.82823181 69.76678467 C-388.23850835 70.25533413 -385.65057344 70.7527897 -383.0625 71.25 C-381.18957758 71.60482422 -379.31652644 71.95896954 -377.44335938 72.3125 C-373.27825693 73.09933449 -369.11380805 73.88952405 -364.94970703 74.68164062 C-357.4466057 76.10716396 -349.94034664 77.51573812 -342.43359375 78.921875 C-341.43179675 79.10954595 -341.43179675 79.10954595 -340.40976143 79.30100822 C-337.68015248 79.81233185 -334.95053327 80.32360065 -332.220891 80.83474636 C-327.36004273 81.74502094 -322.49942006 82.65649279 -317.63891602 83.56860352 C-302.26159597 86.45407952 -286.88263215 89.33045742 -271.5 92.1875 C-256.20584049 95.02840831 -240.9144855 97.88403891 -225.625 100.75 C-224.63701416 100.93509125 -223.64902832 101.1201825 -222.63110352 101.31088257 C-220.70594266 101.67159789 -218.78083196 102.03258094 -216.85577393 102.3938446 C-214.99396201 102.74286626 -213.13194508 103.09079621 -211.26971436 103.43757629 C-206.53812983 104.32151166 -201.81428688 105.23353074 -197.09667969 106.18945312 C-196.14014496 106.38033508 -195.18361023 106.57121704 -194.1980896 106.7678833 C-192.38188787 107.13132558 -190.56716329 107.50226055 -188.75430298 107.88201904 C-182.84425988 109.12223276 -182.84425988 109.12223276 -177 108 C-175.14137347 105.30896253 -175.14137347 105.30896253 -173.8125 101.9375 C-173.32394531 100.83277344 -172.83539063 99.72804688 -172.33203125 98.58984375 C-166.02913218 81.60343835 -168.31691345 63.88884748 -175.75 47.625 C-176.17796875 46.77164063 -176.6059375 45.91828125 -177.046875 45.0390625 C-178 43 -178 43 -178 41 C-179.258125 40.87625 -180.51625 40.7525 -181.8125 40.625 C-187.26079179 40.02638195 -192.62020754 39.03573574 -198 38 C-195.25586069 35.25586069 -193.00380806 35.23474282 -189.1953125 34.51953125 C-188.49815125 34.38626434 -187.80098999 34.25299744 -187.08270264 34.11569214 C-184.76475039 33.67420923 -182.44491336 33.24354807 -180.125 32.8125 C-178.48307631 32.50124642 -176.84131421 32.18913933 -175.19970703 31.8762207 C-171.79588613 31.22817771 -168.39140355 30.5838008 -164.98632812 29.94238281 C-158.32373636 28.68565873 -151.66731103 27.3976462 -145.01199341 26.10302734 C-142.84858366 25.68236348 -140.68491291 25.26305918 -138.52124023 24.84375 C-129.48256184 23.08844255 -120.45232093 21.29325019 -111.42578125 19.4765625 C-110.33273682 19.25682266 -109.23969238 19.03708282 -108.11352539 18.8106842 C-102.73158354 17.72838471 -97.35033287 16.64284313 -91.97021484 15.55151367 C-80.95710387 13.32735867 -69.93275608 11.24993339 -58.85786438 9.35627747 C-52.00543752 8.1837962 -45.18412358 6.9037086 -38.375 5.5 C-36.29436592 5.08025755 -34.21363483 4.66099571 -32.1328125 4.2421875 C-29.06664334 3.62233674 -26.00100666 3.00020634 -22.93652344 2.37207031 C-20.04270903 1.78090134 -17.14670859 1.20179404 -14.25 0.625 C-13.38681152 0.44517578 -12.52362305 0.26535156 -11.63427734 0.08007812 C-7.4603874 -0.74145474 -4.16775301 -1.30454058 0 0 Z " fill="#5D85BC" transform="translate(451,299)"/>
<path d="M0 0 C1.19542419 0.2254248 2.39084839 0.45084961 3.62249756 0.68310547 C6.83401377 1.2900961 10.04408784 1.90408588 13.25361252 2.52150345 C16.57631191 3.15909995 19.90060879 3.78824345 23.22485352 4.41772461 C27.21968943 5.17449706 31.21443814 5.9316928 35.20848083 6.69264221 C43.05054988 8.18481941 50.89736057 9.64466608 58.75390625 11.05859375 C59.64991043 11.22040634 60.54591461 11.38221893 61.46907043 11.54893494 C64.77080288 12.14477421 68.07252829 12.7403658 71.37631226 13.32473755 C73.55915658 13.71119707 75.74058969 14.1048523 77.921875 14.5 C79.1173999 14.71277588 80.3129248 14.92555176 81.54467773 15.14477539 C84.19400819 15.75735103 86.21059704 16.48761721 88.55078125 17.83984375 C86.90483882 17.69524694 85.25903394 17.54908439 83.61328125 17.40234375 C82.69675781 17.32113281 81.78023438 17.23992187 80.8359375 17.15625 C79.07740446 16.9868788 77.31873392 16.80569137 75.57089233 16.54844666 C70.02340172 15.77661477 65.23546999 16.04495767 59.7421875 17.02734375 C58.50135658 17.23388329 58.50135658 17.23388329 57.23545837 17.44459534 C54.52600788 17.89831617 51.81980533 18.36900848 49.11328125 18.83984375 C47.19811192 19.16383532 45.28274321 19.48665031 43.3671875 19.80834961 C39.39754155 20.47667996 35.42908599 21.15152544 31.46142578 21.83154297 C25.84718299 22.79219591 20.2291549 23.72860344 14.609375 24.65625 C-2.15786748 27.42651347 -18.91544172 30.24975422 -35.6628418 33.13748169 C-48.91666332 35.42184801 -62.18184958 37.63566861 -75.44921875 39.83984375 C-89.18366555 42.12217012 -102.91556188 44.41635341 -116.63671875 46.77734375 C-117.97614794 47.00736883 -119.31558485 47.23734892 -120.6550293 47.46728516 C-127.437597 48.63220345 -134.21966719 49.79994414 -141.00097656 50.97216797 C-147.04224916 52.01607726 -153.08443987 53.05455041 -159.12710571 54.09036255 C-161.5352778 54.50412274 -163.94314039 54.9196886 -166.35067749 55.33712769 C-169.73300994 55.92337746 -173.11636229 56.50336943 -176.5 57.08203125 C-178.02574142 57.34873878 -178.02574142 57.34873878 -179.58230591 57.62083435 C-184.25849584 58.41439081 -188.68482747 59.06588235 -193.44921875 58.83984375 C-193.44921875 59.49984375 -193.44921875 60.15984375 -193.44921875 60.83984375 C-197.56664729 61.31861451 -199.02928192 61.16149749 -202.38671875 58.58984375 C-204.44921875 55.83984375 -204.44921875 55.83984375 -204.30664062 53.76342773 C-203.44921875 51.83984375 -203.44921875 51.83984375 -199.79296875 50.3125 C-198.18354691 49.82506833 -196.56841163 49.35626302 -194.94921875 48.90234375 C-194.08699707 48.64638428 -193.22477539 48.3904248 -192.33642578 48.12670898 C-190.55748398 47.60060058 -188.77635448 47.08183563 -186.99316406 46.5703125 C-184.75169849 45.92669782 -182.51738831 45.26462867 -180.28515625 44.58984375 C-173.10862847 42.43059721 -165.89722191 40.40486699 -158.67504883 38.40429688 C-147.86598141 35.40775677 -137.12988727 32.23791374 -126.42138672 28.90014648 C-117.06353909 25.99644695 -107.65625913 23.28503386 -98.2253418 20.62915039 C-91.56578128 18.75002853 -84.94124482 16.78299492 -78.33227539 14.73291016 C-74.92093985 13.6762021 -71.50115256 12.65732097 -68.07421875 11.65234375 C-67.40994873 11.45729248 -66.74567871 11.26224121 -66.0612793 11.0612793 C-60.93725689 9.55984227 -55.80863835 8.07433897 -50.6796875 6.58984375 C-49.28238772 6.1851455 -47.88508956 5.78044167 -46.48779297 5.37573242 C-43.70469675 4.56970238 -40.92109792 3.76543876 -38.13720703 2.9621582 C-36.83103991 2.5841982 -35.52488698 2.20618916 -34.21875 1.828125 C-33.05964111 1.49337158 -31.90053223 1.15861816 -30.70629883 0.8137207 C-27.4857512 -0.09965582 -27.4857512 -0.09965582 -24.58862305 -1.28442383 C-16.37333104 -3.576068 -8.19583863 -1.59312517 0 0 Z " fill="#62BFA9" transform="translate(250.44921875,82.16015625)"/>
<path d="M0 0 C1.37092126 2.34263519 2.28779341 4.29332154 3.1875 6.8125 C3.44160645 7.49538086 3.69571289 8.17826172 3.95751953 8.88183594 C7.26365957 18.10456666 8.15372999 26.94346438 8.25 36.6875 C8.25950684 37.47157227 8.26901367 38.25564453 8.27880859 39.06347656 C8.24734578 44.60792299 7.53733858 49.67216272 6 55 C5.75467529 55.87648193 5.50935059 56.75296387 5.2565918 57.65600586 C3.13046232 64.07191078 3.13046232 64.07191078 0.39892578 66.31445312 C-1.67804474 67.33960703 -3.72685442 68.05795385 -5.9375 68.75 C-7.70621395 69.37754157 -9.47439425 70.00658823 -11.2421875 70.63671875 C-12.27182617 70.99040527 -13.30146484 71.3440918 -14.36230469 71.70849609 C-18.75789748 73.26907904 -23.09956224 74.95106065 -27.4453125 76.64453125 C-29.97128697 77.62367586 -32.49767959 78.60173393 -35.02420044 79.57946777 C-36.71639873 80.23482204 -38.40803005 80.8916422 -40.09909058 81.54992676 C-42.50133586 82.48161191 -44.90808386 83.40056422 -47.31640625 84.31640625 C-48.41210434 84.7453997 -48.41210434 84.7453997 -49.52993774 85.18305969 C-54.65728528 87.11423824 -54.65728528 87.11423824 -58 86 C-57.59007812 85.02160156 -57.18015625 84.04320312 -56.7578125 83.03515625 C-49.28867021 64.99203366 -47.37425913 48.77646055 -54 30 C-55.26235115 26.97107245 -56.58836119 24.01321194 -58.046875 21.07421875 C-59 19 -59 19 -59 17 C-45.06207644 11.88914352 -31.12072834 6.90411036 -16.91357422 2.59033203 C-15.19694317 2.06075639 -13.49025581 1.49919786 -11.78515625 0.93359375 C-10.90730469 0.64613281 -10.02945313 0.35867187 -9.125 0.0625 C-8.42632812 -0.17339844 -7.72765625 -0.40929687 -7.0078125 -0.65234375 C-4.21419535 -1.13606345 -2.65178323 -1.0776847 0 0 Z " fill="#9DDAC7" transform="translate(347,160)"/>
<path d="M0 0 C1.134375 0.020625 2.26875 0.04125 3.4375 0.0625 C13.0700935 17.61437986 15.32491545 39.0180112 11.1875 58.625 C10.95546875 59.76066406 10.7234375 60.89632812 10.484375 62.06640625 C7.43575153 66.52879977 3.57718604 67.48664938 -1.40844727 69.27261353 C-4.87271957 70.54295468 -8.29159641 71.92598907 -11.71911621 73.29179382 C-15.81063517 74.91957052 -19.91101595 76.52440618 -24.01123047 78.13012695 C-27.21585366 79.38611263 -30.41847378 80.64711965 -33.62109375 81.90820312 C-35.65612935 82.70603697 -37.69128133 83.50357406 -39.7265625 84.30078125 C-40.68478912 84.67882401 -41.64301575 85.05686676 -42.63027954 85.44636536 C-43.51235077 85.79060043 -44.394422 86.13483551 -45.30322266 86.48950195 C-46.07977203 86.794189 -46.85632141 87.09887604 -47.65640259 87.41279602 C-49.5625 88.0625 -49.5625 88.0625 -51.5625 88.0625 C-50.6586806 82.6293129 -48.64276237 77.67517766 -46.71875 72.53515625 C-41.32498195 56.3356299 -44.72687626 39.15783577 -51.5625 24.0625 C-52.23394374 22.39775211 -52.90131986 20.73135082 -53.5625 19.0625 C-43.35810724 14.58171269 -32.90180622 10.94846029 -22.375 7.3125 C-19.82603791 6.43102702 -17.27748392 5.54845546 -14.73014832 4.66229248 C-13.15748391 4.11525267 -11.58387258 3.57092595 -10.00923157 3.02960205 C-1.36424655 0.02393415 -1.36424655 0.02393415 0 0 Z " fill="#3F5983" transform="translate(335.5625,319.9375)"/>
<path d="M0 0 C3.3 0.33 6.6 0.66 10 1 C9.65066406 1.95261719 9.30132812 2.90523437 8.94140625 3.88671875 C8.48158334 5.15357779 8.02195838 6.4205087 7.5625 7.6875 C7.33240234 8.31333984 7.10230469 8.93917969 6.86523438 9.58398438 C2.03608737 22.95162319 2.52870023 38.82836382 7.82017517 52.04922485 C9.24420768 54.40378391 10.19006174 54.86459336 12.72875977 55.84912109 C13.50793762 56.15909531 14.28711548 56.46906952 15.08990479 56.78843689 C15.94840027 57.11348709 16.80689575 57.43853729 17.69140625 57.7734375 C18.59799988 58.12930435 19.50459351 58.4851712 20.43865967 58.8518219 C23.47489739 60.03962987 26.51851391 61.20720657 29.5625 62.375 C31.72009915 63.21441023 33.87723533 64.05501134 36.03393555 64.89672852 C41.8252413 67.15243818 47.62331248 69.39020117 53.42358398 71.6227417 C58.13521946 73.43716682 62.84433716 75.25807698 67.55354309 77.07879639 C75.85434101 80.28790017 84.15650764 83.49341636 92.4621582 86.68994141 C109.24789187 93.15143126 126.00781294 99.67651641 142.75 106.25 C143.85179596 106.68255096 144.95359192 107.11510193 146.08877563 107.5607605 C150.94486071 109.4677282 155.80050877 111.37580592 160.65527344 113.28613281 C161.81198547 113.73647888 161.81198547 113.73647888 162.99206543 114.19592285 C164.57004647 114.82782516 166.12329627 115.52151571 167.66503906 116.23730469 C173.64162958 118.18950761 179.85398937 116.64406982 185.8515625 115.4609375 C186.69505249 115.29968384 187.53854248 115.13843018 188.40759277 114.97229004 C191.14803137 114.44637768 193.88650466 113.9109311 196.625 113.375 C198.53362284 113.00631802 200.44231488 112.63799413 202.35107422 112.27001953 C214.11051786 109.99451757 225.84631431 107.61917936 237.56665039 105.14990234 C246.37588547 103.30408634 255.21170521 101.63085738 264.0625 100 C273.97307555 98.17370941 283.84290951 96.22180203 293.6875 94.0625 C305.1338764 91.55440176 316.61848137 89.33634037 328.13702393 87.19232178 C342.44805829 84.5253045 356.70902378 81.64340948 370.95825195 78.66455078 C398.31910156 72.95955957 398.31910156 72.95955957 406 74 C408 76 408 76 408.125 78.625 C408.08375 79.40875 408.0425 80.1925 408 81 C403.10237627 82.96647014 398.58476821 84.16076449 393.30078125 84.46875 C387.69478104 84.88579946 382.41115176 85.82113071 376.9375 87.0625 C366.60293413 89.30802089 356.23464555 91.2852175 345.8331604 93.19119263 C328.60671639 96.34817372 311.41899337 99.66914822 294.25 103.125 C293.18273682 103.33979004 292.11547363 103.55458008 291.01586914 103.77587891 C288.89259481 104.20327973 286.76932408 104.63069848 284.64605713 105.05813599 C283.6207489 105.26453705 282.59544067 105.47093811 281.5390625 105.68359375 C280.53131775 105.88653046 279.523573 106.08946716 278.48529053 106.29855347 C266.61213139 108.68647532 254.72124882 110.97899295 242.82763672 113.26269531 C237.00596435 114.38410433 231.18669861 115.51779756 225.36743164 116.65161133 C222.28239936 117.25257913 219.19695071 117.85133012 216.11108398 118.44799805 C209.13014936 119.79886779 202.15388565 121.16563272 195.1875 122.58984375 C193.99680908 122.82952881 192.80611816 123.06921387 191.5793457 123.31616211 C189.39367813 123.75681963 187.20974016 124.20619014 185.02807617 124.66625977 C184.06361572 124.85889404 183.09915527 125.05152832 182.10546875 125.25 C181.28199951 125.42015625 180.45853027 125.5903125 179.61010742 125.765625 C173.48084167 126.31600337 168.15035413 124.52073508 162.5546875 122.234375 C161.86295441 121.95909973 161.17122131 121.68382446 160.45852661 121.40020752 C158.26106101 120.52399095 156.06798596 119.63736054 153.875 118.75 C152.42737403 118.16984703 150.97945921 117.59041426 149.53125 117.01171875 C147.38540811 116.15409167 145.23980467 115.29591823 143.09533691 114.43486023 C137.87089094 112.33855771 132.62375307 110.30707316 127.36572266 108.29638672 C121.26735337 105.9474573 115.19543675 103.53128865 109.11935425 101.12542725 C94.07394652 95.16958597 79.01236026 89.25587669 63.9375 83.375 C63.07854126 83.0397934 62.21958252 82.70458679 61.33459473 82.35922241 C56.58282212 80.50519092 51.82950551 78.65519953 47.07489014 76.80847168 C45.14326546 76.05582275 43.21434144 75.29625288 41.28564453 74.53613281 C35.72231532 72.35758865 30.19061597 70.40942483 24.45214844 68.75146484 C19.90755901 67.35876808 15.52170547 65.61086592 11.125 63.8125 C10.20203125 63.46380859 9.2790625 63.11511719 8.328125 62.75585938 C3.80313324 60.89012002 0.76398904 59.48106229 -1.5234375 55.01953125 C-2.04971228 53.69270622 -2.54599668 52.35325932 -3 51 C-3.34546875 50.13117188 -3.6909375 49.26234375 -4.046875 48.3671875 C-8.5785651 32.30486369 -7.44362772 14.88725545 0 0 Z " fill="#EAB34B" transform="translate(52,215)"/>
<path d="M0 0 C1.08603516 0.34804687 2.17207031 0.69609375 3.29101562 1.0546875 C5.47824281 1.75563865 7.66333579 2.46328589 9.84619141 3.17773438 C14.41084768 4.64258681 19.00915004 5.98979432 23.61206055 7.32910156 C26.1875 8.25 26.1875 8.25 28.1875 10.25 C28.01789198 12.87892424 27.37959319 14.03485562 25.625 16 C23.1875 17.25 23.1875 17.25 19.953125 17.17578125 C14.08387589 17.09537155 8.41974144 18.26275752 2.66149902 19.29876709 C-0.38091856 19.84592803 -3.42601775 20.37749506 -6.47091675 20.91064453 C-8.16061012 21.2067301 -9.85016095 21.50363007 -11.5395813 21.80126953 C-21.7469948 23.59797456 -31.9663849 25.32372196 -42.18536377 27.05319214 C-46.71232601 27.81968553 -51.23891064 28.58839629 -55.76550293 29.35707092 C-64.78687019 30.88899741 -73.80856529 32.41897643 -82.83065796 33.94662476 C-87.08642155 34.66748042 -91.34199664 35.38944448 -95.59753418 36.1116333 C-97.58141594 36.44803968 -99.56538112 36.78395452 -101.54943848 37.11932373 C-104.31052265 37.58607533 -107.07132664 38.05444658 -109.83203125 38.5234375 C-110.68952972 38.66840668 -111.5470282 38.81337585 -112.43051147 38.96273804 C-116.47766042 39.65324941 -120.51363377 40.37599523 -124.54052734 41.17675781 C-125.27720139 41.3220694 -126.01387543 41.46738098 -126.77287292 41.61709595 C-128.73912806 42.0096004 -130.70304784 42.41375443 -132.66674805 42.81884766 C-135.51938927 43.20982666 -137.14926202 43.22833232 -139.8125 42.25 C-128.85041235 37.92131596 -117.88783487 33.59387451 -106.92480469 29.26757812 C-103.76128369 28.01915745 -100.59785665 26.7704995 -97.43457031 25.52148438 C-78.69072315 18.12092793 -59.92751147 10.77099305 -41.15112305 3.45336914 C-40.30021591 3.12169739 -39.44930878 2.79002563 -38.57261658 2.44830322 C-36.97770197 1.82670237 -35.382706 1.2053102 -33.78761292 0.58416748 C-33.07233932 0.30542786 -32.35706573 0.02668823 -31.62011719 -0.26049805 C-30.95571121 -0.51799835 -30.29130524 -0.77549866 -29.60676575 -1.040802 C-28.08502365 -1.64228283 -26.5785068 -2.28206255 -25.07592773 -2.92993164 C-16.69982145 -5.96470038 -8.03232337 -2.66014702 0 0 Z " fill="#EAB349" transform="translate(431.8125,210.75)"/>
<path d="M0 0 C0.73638199 0.28686676 1.47276398 0.57373352 2.23146057 0.86929321 C4.65240863 1.81651325 7.06421185 2.78502371 9.4765625 3.75390625 C11.18509311 4.4270597 12.89417092 5.09882576 14.60375977 5.76928711 C19.16162271 7.56105098 23.71195779 9.37121617 28.26092529 11.1854248 C33.05931439 13.09587258 37.8638373 14.99076789 42.66796875 16.88671875 C48.24167974 19.0867175 53.81475717 21.28815262 59.38232422 23.50366211 C69.58012708 27.55847588 79.80832494 31.51005746 90.1015625 35.31640625 C86.43934054 36.58542165 83.65493681 36.07904105 79.8828125 35.3828125 C77.93652954 35.03379883 77.93652954 35.03379883 75.95092773 34.67773438 C75.24733124 34.54826416 74.54373474 34.41879395 73.81881714 34.28540039 C69.89745052 33.56648767 65.97028517 32.88085781 62.04296875 32.1953125 C60.75484032 31.97012436 60.75484032 31.97012436 59.44068909 31.74038696 C48.16360167 29.78502233 36.85202437 28.04975437 25.5390625 26.31640625 C24.44028778 26.14778076 23.34151306 25.97915527 22.20944214 25.80541992 C4.7663815 23.13354432 -12.69241435 20.57932175 -30.16821289 18.13085938 C-30.99616364 18.01451645 -31.82411438 17.89817352 -32.67715454 17.77830505 C-34.20322247 17.56421526 -35.72947425 17.35142972 -37.25595093 17.14027405 C-47.26694355 15.73740221 -47.26694355 15.73740221 -49.7734375 14.06640625 C-50.8984375 12.31640625 -50.8984375 12.31640625 -50.46875 9.70703125 C-50.28054687 8.918125 -50.09234375 8.12921875 -49.8984375 7.31640625 C-45.36854115 5.87578963 -40.83371036 4.45236855 -36.29370117 3.04394531 C-34.75320349 2.56349706 -33.21409939 2.07855463 -31.67651367 1.58886719 C-29.45331339 0.88171487 -27.22543539 0.19141721 -24.99609375 -0.49609375 C-24.3207106 -0.71483154 -23.64532745 -0.93356934 -22.94947815 -1.15893555 C-14.75395927 -3.64498401 -7.88129292 -3.22415183 0 0 Z " fill="#5E86BC" transform="translate(91.8984375,287.68359375)"/>
<path d="M0 0 C6.53912722 0.63552997 12.87356734 1.67506103 19.3046875 3.00390625 C21.3312982 3.41496079 23.35790955 3.82601208 25.38452148 4.23706055 C26.4419455 4.45308929 27.49936951 4.66911804 28.58883667 4.89169312 C46.17660709 8.48189734 63.78185076 11.94764087 81.4375 15.1875 C96.07108876 17.87428533 110.67456045 20.6763972 125.25170898 23.6550293 C126.56621332 23.9225116 127.88074724 24.18984853 129.1953125 24.45703125 C130.45504883 24.71307129 131.71478516 24.96911133 133.01269531 25.23291016 C135.91078939 25.80513075 138.81497056 26.31296236 141.72949219 26.79443359 C142.51363495 26.92532883 143.29777771 27.05622406 144.10568237 27.19108582 C145.62776182 27.44201416 147.15113538 27.68524278 148.67581177 27.9198761 C150.46257013 28.21447546 152.2340298 28.59919648 154 29 C154.33 29.66 154.66 30.32 155 31 C149.29152201 32.0290599 143.58074994 33.04381559 137.86743164 34.0456543 C135.92598805 34.38812876 133.98521649 34.73443673 132.04516602 35.0847168 C129.24925812 35.58882638 126.45118786 36.07889718 123.65234375 36.56640625 C122.7916478 36.72468399 121.93095184 36.88296173 121.04417419 37.04603577 C112.78707963 38.45745251 106.20080148 36.93371751 98.39453125 34.26171875 C97.15780167 33.84666832 97.15780167 33.84666832 95.89608765 33.42323303 C93.19963466 32.51692374 90.50610189 31.60224432 87.8125 30.6875 C85.92443971 30.05115019 84.03617192 29.41541573 82.14770508 28.78027344 C78.29327515 27.48341114 74.43979764 26.1837729 70.58691406 24.88232422 C65.47684681 23.15815122 60.36114571 21.45147889 55.2421875 19.75390625 C54.47891647 19.50072128 53.71564545 19.24753632 52.929245 18.98667908 C51.42173536 18.48664527 49.914223 17.9866197 48.40670776 17.48660278 C32.22740952 12.11634574 16.10036614 6.60241606 0 1 C0 0.67 0 0.34 0 0 Z " fill="#EAB349" transform="translate(117,227)"/>
<path d="M0 0 C9.41002278 0.96355353 9.41002278 0.96355353 14 2 C13.01 2.495 13.01 2.495 12 3 C11.67 3.66 11.34 4.32 11 5 C7.37 3.68 3.74 2.36 0 1 C0 0.67 0 0.34 0 0 Z " fill="#DAB559" transform="translate(117,227)"/>
<path d="M0 0 C-3.00617269 3.00617269 -5.82381598 2.59585316 -10 3 C-6.84439813 -0.15560187 -4.30999015 -1.43666338 0 0 Z " fill="#DCB558" transform="translate(302,251)"/>
</svg>
